<svg width="25" height="25" viewBox="0 0 25 25" fill="#B5E9DF" xmlns="http://www.w3.org/2000/svg">
<path fill-rule="evenodd" clip-rule="evenodd" d="M0 2.67857C0 1.96817 0.282206 1.28686 0.784535 0.784535C1.28686 0.282206 1.96817 0 2.67857 0L15.1786 0C15.889 0 16.5703 0.282206 17.0726 0.784535C17.5749 1.28686 17.8571 1.96817 17.8571 2.67857V6.14107C17.1326 6.72142 16.6625 7.56109 16.5464 8.48214H10.2679C9.74022 8.48214 9.21776 8.58607 8.73029 8.78798C8.24282 8.9899 7.7999 9.28585 7.4268 9.65895C7.05371 10.032 6.75776 10.475 6.55584 10.9624C6.35392 11.4499 6.25 11.9724 6.25 12.5C6.25 13.0276 6.35392 13.5501 6.55584 14.0376C6.75776 14.525 7.05371 14.968 7.4268 15.3411C7.7999 15.7141 8.24282 16.0101 8.73029 16.212C9.21776 16.4139 9.74022 16.5179 10.2679 16.5179H16.5464C16.6625 17.4389 17.1326 18.2786 17.8571 18.8589V22.3214C17.8571 23.0318 17.5749 23.7131 17.0726 24.2155C16.5703 24.7178 15.889 25 15.1786 25H2.67857C1.96817 25 1.28686 24.7178 0.784535 24.2155C0.282206 23.7131 0 23.0318 0 22.3214L0 2.67857ZM19.5768 7.69107C19.332 7.79245 19.1228 7.96413 18.9757 8.1844C18.8285 8.40468 18.75 8.66366 18.75 8.92857V10.7143H10.2679C9.79426 10.7143 9.34005 10.9024 9.00517 11.2373C8.67028 11.5722 8.48214 12.0264 8.48214 12.5C8.48214 12.9736 8.67028 13.4278 9.00517 13.7627C9.34005 14.0976 9.79426 14.2857 10.2679 14.2857H18.75V16.0714C18.7502 16.3361 18.8289 16.5949 18.9761 16.8149C19.1233 17.0349 19.3323 17.2064 19.5769 17.3077C19.8215 17.4089 20.0906 17.4354 20.3502 17.3839C20.6099 17.3323 20.8484 17.2049 21.0357 17.0179L24.6071 13.4464C24.8579 13.1953 24.9988 12.8549 24.9988 12.5C24.9988 12.1451 24.8579 11.8047 24.6071 11.5536L21.0357 7.98214C20.8485 7.79484 20.6101 7.66722 20.3504 7.61541C20.0907 7.5636 19.8215 7.58993 19.5768 7.69107Z" fill="currentColor"/>
</svg>
